<?xml version="1.0" encoding="utf-8"?>
<!-- Generator: Adobe Illustrator 25.1.0, SVG Export Plug-In . SVG Version: 6.00 Build 0)  -->
<svg version="1.1" id="Layer_1" xmlns="http://www.w3.org/2000/svg" xmlns:xlink="http://www.w3.org/1999/xlink" x="0px" y="0px"
	 viewBox="0 0 226.59 75.28" style="enable-background:new 0 0 226.59 75.28;" xml:space="preserve">
<style type="text/css">
	.st0{fill:#271A62;}
</style>
<g>
	<g>
		<path class="st0" d="M6.03,65.66v9.36H3.75v-9.36H0.02v-2.1h9.75v2.1H6.03z"/>
		<path class="st0" d="M26.75,75.01h-8.53V63.55h8.49v2.1H20.5v2.58h5.73v2.07H20.5v2.6h6.25V75.01z"/>
		<path class="st0" d="M44.32,70.22l2.21,0.46c-0.55,2.94-2.83,4.58-5.53,4.58c-3.3,0-5.9-2.62-5.9-5.99c0-3.35,2.6-5.99,5.9-5.99
			c2.7,0,4.96,1.66,5.53,4.41l-2.21,0.63c-0.42-1.98-1.76-2.86-3.32-2.86c-2.01,0-3.6,1.62-3.6,3.8c0,2.17,1.59,3.81,3.6,3.81
			C42.56,73.1,43.91,72.22,44.32,70.22z"/>
		<path class="st0" d="M65.24,75.01h-2.28v-4.7H57.6v4.7h-2.28V63.55h2.28v4.65h5.36v-4.65h2.28V75.01z"/>
		<path class="st0" d="M84.93,75.01h-1.91l-6.22-7.36v7.36h-2.28V63.55h1.91l6.22,7.56v-7.56h2.28V75.01z"/>
		<path class="st0" d="M105.54,69.3c0,3.33-2.6,5.97-5.91,5.97s-5.91-2.63-5.91-5.97c0-3.34,2.6-6,5.91-6S105.54,65.96,105.54,69.3z
			 M103.24,69.3c0-2.19-1.59-3.81-3.62-3.81s-3.62,1.62-3.62,3.81s1.59,3.78,3.62,3.78S103.24,71.49,103.24,69.3z"/>
		<path class="st0" d="M122.4,75.01h-8.08V63.55h2.28v9.36h5.8V75.01z"/>
		<path class="st0" d="M142.17,69.3c0,3.33-2.6,5.97-5.92,5.97s-5.91-2.63-5.91-5.97c0-3.34,2.6-6,5.91-6S142.17,65.96,142.17,69.3z
			 M139.88,69.3c0-2.19-1.59-3.81-3.62-3.81c-2.03,0-3.62,1.62-3.62,3.81s1.59,3.78,3.62,3.78
			C138.28,73.08,139.88,71.49,139.88,69.3z"/>
		<path class="st0" d="M162.06,68.32c0.03,0.39,0.05,0.72,0.05,0.99c0,3.4-2.38,5.95-5.7,5.95c-3.35,0-5.96-2.62-5.96-5.99
			c0-3.35,2.6-5.99,5.9-5.99c2.36,0,4.59,1.13,5.4,3.46l-2.04,0.74c-0.82-1.61-2.13-2-3.35-2c-2.01,0-3.58,1.64-3.58,3.8
			c0,2.17,1.62,3.81,3.72,3.81c1.71,0,2.98-1.03,3.37-2.65h-3.94v-2.12H162.06z"/>
		<path class="st0" d="M170.9,75.01V63.55h2.28v11.46H170.9z"/>
		<path class="st0" d="M190.99,75.01h-8.53V63.55h8.49v2.1h-6.22v2.58h5.73v2.07h-5.73v2.6h6.25V75.01z"/>
		<path class="st0" d="M208.58,66.6l-2.28,0.48c-0.17-1.08-1.09-1.78-2.21-1.78c-1.14,0-1.83,0.65-1.83,1.42
			c0,0.58,0.25,0.99,1.12,1.16l2.41,0.5c1.83,0.39,2.95,1.5,2.95,3.28c0,2.22-1.79,3.61-4.46,3.61c-2.35,0-4.41-1.11-4.69-3.4
			l2.4-0.5c0.3,1.3,1.24,1.86,2.51,1.86c1.31,0,1.99-0.63,1.99-1.45c0-0.65-0.3-1.04-1.31-1.25l-2.38-0.46
			c-1.34-0.29-2.95-1.04-2.95-3.28c0-2.05,1.64-3.49,4.27-3.49C206.42,63.3,208.15,64.56,208.58,66.6z"/>
	</g>
	<g>
		<g>
			<polygon class="st0" points="206.73,6.62 200.1,13.24 200.1,0 213.35,0 			"/>
		</g>
		<g>
			<polygon class="st0" points="219.97,6.62 213.35,13.24 213.35,0 226.59,0 			"/>
		</g>
		<g>
			<polygon class="st0" points="206.73,19.87 200.1,26.49 200.1,13.24 213.35,13.24 			"/>
		</g>
		<g>
			<polygon class="st0" points="219.97,19.87 213.35,26.49 213.35,13.24 226.59,13.24 			"/>
		</g>
		<g>
			<polygon class="st0" points="193.48,19.87 186.86,26.49 186.86,13.24 200.1,13.24 			"/>
		</g>
	</g>
	<g>
		<path class="st0" d="M28.46,39.93c-1.27,6.89-6.8,10.9-13.85,10.9c-8.16,0-14.59-6.27-14.59-14.34c0-8.03,6.43-14.34,14.59-14.34
			c6.76,0,12.5,4.02,13.81,10.53l-6.64,1.56c-0.86-3.98-3.65-5.9-7.17-5.9c-4.34,0-7.83,3.48-7.83,8.16s3.48,8.2,7.83,8.2
			c3.48,0,6.27-1.97,7.21-6.06L28.46,39.93z"/>
		<path class="st0" d="M53.58,39.93c0,6.52-5.16,10.86-11.27,10.86c-6.23,0-11.39-4.34-11.39-10.86c0-6.48,5.16-10.82,11.39-10.82
			C48.41,29.11,53.58,33.46,53.58,39.93z M47.26,39.93c0-3.2-2.42-5.33-4.96-5.33c-2.66,0-5.08,2.13-5.08,5.33
			c0,3.24,2.42,5.33,5.08,5.33C44.85,45.26,47.26,43.17,47.26,39.93z"/>
		<path class="st0" d="M78.61,50.22h-6.56v-1.64c-1.6,1.43-3.73,2.25-6.39,2.25c-5.45,0-10.04-4.39-10.04-10.9
			c0-6.48,4.59-10.9,10.04-10.9c2.66,0,4.8,0.82,6.39,2.25V20.71h6.56V50.22z M72.05,39.93c0-3.16-2.38-5.33-5.04-5.33
			c-2.87,0-4.96,2.17-4.96,5.33c0,3.2,2.09,5.33,4.96,5.33C69.68,45.26,72.05,43.13,72.05,39.93z"/>
		<path class="st0" d="M103.53,41.61H88.44c0.53,2.46,2.21,3.98,4.43,3.98c1.52,0,3.28-0.37,4.39-2.38l5.82,1.19
			c-1.76,4.34-5.49,6.43-10.21,6.43c-5.94,0-10.86-4.39-10.86-10.9c0-6.48,4.92-10.9,10.9-10.9c5.82,0,10.49,4.18,10.62,10.9V41.61z
			 M88.57,37.6h8.48c-0.62-2.21-2.25-3.24-4.14-3.24C91.07,34.36,89.18,35.51,88.57,37.6z"/>
		<path class="st0" d="M122.05,29.52l-0.29,6.56h-1.19c-4.59,0-7.09,2.38-7.09,7.71v6.43h-6.56V29.65h6.56v3.93
			c1.48-2.46,3.73-4.22,7.09-4.22C121.15,29.36,121.56,29.4,122.05,29.52z"/>
		<path class="st0" d="M129.79,43.54c0.29,1.76,1.89,2.42,3.65,2.42c1.72,0,2.66-0.74,2.66-1.64c0-0.7-0.53-1.23-2.05-1.52
			l-4.18-0.82c-3.81-0.7-5.98-2.75-5.98-5.98c0-4.22,3.65-6.97,8.85-6.97c5.12,0,8.53,2.34,9.34,5.9l-5.98,1.19
			c-0.21-1.27-1.43-2.42-3.44-2.42c-1.76,0-2.34,0.86-2.34,1.6c0,0.57,0.25,1.15,1.56,1.43l4.84,0.98c3.89,0.82,5.7,3.16,5.7,6.19
			c0,4.55-3.93,6.93-9.34,6.93c-4.84,0-8.98-1.76-9.67-5.98L129.79,43.54z"/>
		<path class="st0" d="M168.89,39.93c0,6.52-4.59,10.9-10.04,10.9c-2.66,0-4.79-0.82-6.39-2.25v1.64h-6.56V20.71h6.56v10.57
			c1.6-1.43,3.73-2.25,6.39-2.25C164.3,29.03,168.89,33.46,168.89,39.93z M162.45,39.93c0-3.16-2.09-5.33-4.96-5.33
			c-2.66,0-5.04,2.17-5.04,5.33c0,3.2,2.38,5.33,5.04,5.33C160.36,45.26,162.45,43.13,162.45,39.93z"/>
		<path class="st0" d="M193.92,50.22h-6.56v-1.64c-1.6,1.43-3.73,2.25-6.39,2.25c-5.45,0-10.04-4.39-10.04-10.9
			c0-6.48,4.59-10.9,10.04-10.9c2.66,0,4.79,0.82,6.39,2.25v-1.64h6.56V50.22z M187.37,39.93c0-3.16-2.38-5.33-5.04-5.33
			c-2.87,0-4.96,2.17-4.96,5.33c0,3.2,2.09,5.33,4.96,5.33C184.99,45.26,187.37,43.13,187.37,39.93z"/>
		<path class="st0" d="M208.88,57.19h-7.09l3.32-7.66l-8.52-19.92h7.05l4.88,12.01l5.21-12.01h7.05L208.88,57.19z"/>
	</g>
</g>
</svg>
