<svg xmlns="http://www.w3.org/2000/svg" width="197.319" height="45.138" viewBox="0 0 197.319 45.138">
  <defs>
    <style>
      .cls-1 {
        fill: #2d2d2d;
      }

      .cls-2 {
        fill: #ef5713;
      }
    </style>
  </defs>
  <g id="Group_5" data-name="Group 5" transform="translate(-137.15 -73)">
    <g id="Group_4" data-name="Group 4" transform="translate(138.362 73)">
      <path id="Path_1420" data-name="Path 1420" class="cls-1" d="M328.841,68.334a2.83,2.83,0,1,1,2-.828,2.712,2.712,0,0,1-2,.828" transform="translate(-135.56 -43.396)"/>
      <path id="Path_1421" data-name="Path 1421" class="cls-1" d="M306.652,59.1a3.208,3.208,0,0,0,1.391-.291,3.366,3.366,0,0,0,1.066-.792,3.571,3.571,0,0,0,.7-1.164,3.978,3.978,0,0,0,.242-1.374,3.548,3.548,0,0,0-.988-2.572,3.257,3.257,0,0,0-2.439-1.017,3.333,3.333,0,0,0-1.407.29,3.032,3.032,0,0,0-1.064.808,3.856,3.856,0,0,0-.681,1.18,4,4,0,0,0-.242,1.375,3.411,3.411,0,0,0,.291,1.421,3.915,3.915,0,0,0,.759,1.131,3.254,3.254,0,0,0,1.083.745,3.3,3.3,0,0,0,1.292.258m-.243,4.026a8.269,8.269,0,0,1-3.086-.569,7.679,7.679,0,0,1-2.5-1.591,7.279,7.279,0,0,1-1.671-2.418,7.694,7.694,0,0,1-.6-3.086,7.545,7.545,0,0,1,.584-2.972,7.211,7.211,0,0,1,1.639-2.4,7.768,7.768,0,0,1,2.549-1.624,8.827,8.827,0,0,1,3.314-.6,8.967,8.967,0,0,1,3.231.569,7.753,7.753,0,0,1,2.565,1.592,7.154,7.154,0,0,1,1.689,2.419,7.631,7.631,0,0,1,.6,3.052,7.478,7.478,0,0,1-2.159,5.261,7.84,7.84,0,0,1-2.614,1.72,9.139,9.139,0,0,1-3.54.65" transform="translate(-126.084 -38.281)"/>
      <path id="Path_1422" data-name="Path 1422" class="cls-1" d="M284.635,49.428h-1.949V45.985h1.949V40.919h4.675v5.066h2.63v3.442h-2.63V60.208h-4.675Z" transform="translate(-120.611 -35.886)"/>
      <path id="Path_1423" data-name="Path 1423" class="cls-1" d="M256.855,48.654h4.677V55.96a8.214,8.214,0,0,0,.111,1.4,3.18,3.18,0,0,0,.4,1.121,2.016,2.016,0,0,0,.792.745,2.7,2.7,0,0,0,1.3.277,2.489,2.489,0,0,0,1.284-.292,1.957,1.957,0,0,0,.743-.779,3.54,3.54,0,0,0,.349-1.088,8.133,8.133,0,0,0,.095-1.25V48.654h4.675V56.09a14.282,14.282,0,0,1-.293,3.118,4.467,4.467,0,0,1-1.3,2.273,5.835,5.835,0,0,1-2.534,1.478,10.91,10.91,0,0,1-3.085.438,9.629,9.629,0,0,1-3.15-.5,6.732,6.732,0,0,1-2.6-1.64,4.448,4.448,0,0,1-1.119-2,12,12,0,0,1-.343-3.166Z" transform="translate(-111.699 -38.555)"/>
      <path id="Path_1424" data-name="Path 1424" class="cls-1" d="M233.634,49.247l-1.947-5.228c-.217-.586-.439-1.223-.667-1.917s-.438-1.386-.634-2.079q-.292,1.072-.616,2.1t-.65,1.932l-1.884,5.2Zm-5.943-14.029h5.326L242.5,58.242h-5.552L235.225,53.6h-9.546l-1.689,4.644h-5.359Z" transform="translate(-98.512 -33.919)"/>
      <path id="Path_1425" data-name="Path 1425" class="cls-2" d="M206.153,49.428h-1.948V45.985h1.948V40.919h4.675v5.066h2.631v3.442h-2.631V60.208h-4.675Z" transform="translate(-93.535 -35.886)"/>
      <path id="Path_1426" data-name="Path 1426" class="cls-2" d="M193.248,33.235h4.676V57.558h-4.676Z" transform="translate(-89.755 -33.235)"/>
      <path id="Path_1427" data-name="Path 1427" class="cls-2" d="M176.739,53.868a2.711,2.711,0,0,0-.193-1.005,2.882,2.882,0,0,0-.553-.878,2.813,2.813,0,0,0-.861-.633,2.628,2.628,0,0,0-1.153-.244,2.724,2.724,0,0,0-2.013.78,3.192,3.192,0,0,0-.91,1.98Zm4.255,5.976A8.255,8.255,0,0,1,178.1,62.3a9.184,9.184,0,0,1-4.125.829,8.38,8.38,0,0,1-2.777-.472,6.883,6.883,0,0,1-2.37-1.4,6.723,6.723,0,0,1-1.639-2.338,8.247,8.247,0,0,1-.618-3.329,8.577,8.577,0,0,1,.536-3.067,7.214,7.214,0,0,1,1.526-2.454,7.093,7.093,0,0,1,2.353-1.623,7.6,7.6,0,0,1,3.021-.585,8.4,8.4,0,0,1,2.971.5,6.29,6.29,0,0,1,3.8,3.768,8.69,8.69,0,0,1,.536,3.166v.535c0,.227-.011.483-.033.762H171.023a3.2,3.2,0,0,0,1.008,2.258,3.4,3.4,0,0,0,2.435.892,4.244,4.244,0,0,0,3.54-1.882Z" transform="translate(-80.553 -38.281)"/>
      <path id="Path_1428" data-name="Path 1428" class="cls-2" d="M120.318,35.218h5.2l3.215,12.568q.294,1.168.536,2.483t.405,2.647q.2-1.363.438-2.71t.5-2.55l2.729-12.438h5.552l2.826,12.632q.259,1.039.519,2.355t.455,2.776q.227-1.4.467-2.744c.162-.9.327-1.673.5-2.321l3.157-12.7h5.066l-6.722,23.024H139.77l-2.857-12.7q-.195-.906-.439-2.174c-.162-.846-.33-1.786-.5-2.826q-.227,1.56-.421,2.76t-.422,2.239l-2.76,12.7h-5.326Z" transform="translate(-64.594 -33.919)"/>
      <path id="Path_1429" data-name="Path 1429" class="cls-1" d="M98.98,58.14a2.7,2.7,0,0,0,.8,1.169,1.873,1.873,0,0,0,1.25.454A1.907,1.907,0,0,0,102.1,59.5a.813.813,0,0,0,.39-.713.934.934,0,0,0-.519-.829,7.519,7.519,0,0,0-1.284-.585c-.51-.183-1.06-.377-1.657-.586a7.243,7.243,0,0,1-1.655-.811,4.448,4.448,0,0,1-1.284-1.3,3.64,3.64,0,0,1-.519-2.029,4.385,4.385,0,0,1,.39-1.835,4.49,4.49,0,0,1,1.121-1.511,5.334,5.334,0,0,1,1.786-1.022,7.25,7.25,0,0,1,2.418-.372,6.832,6.832,0,0,1,3.394.777,4.9,4.9,0,0,1,2.1,2.566l-3.7,1.43a2.4,2.4,0,0,0-.895-1.17,2.079,2.079,0,0,0-1.087-.326,1.5,1.5,0,0,0-.844.26.844.844,0,0,0-.39.747,1.027,1.027,0,0,0,.518.893,6.194,6.194,0,0,0,1.284.618q.762.275,1.672.582A7.4,7.4,0,0,1,105,55.1a4.47,4.47,0,0,1,1.282,1.3,3.641,3.641,0,0,1,.52,2.029,4.072,4.072,0,0,1-.455,1.932,4.353,4.353,0,0,1-1.25,1.462,5.638,5.638,0,0,1-1.868.91,8.467,8.467,0,0,1-2.338.308,7.464,7.464,0,0,1-3.8-.81,4.8,4.8,0,0,1-2.013-2.566Z" transform="translate(-55.888 -38.299)"/>
      <path id="Path_1430" data-name="Path 1430" class="cls-1" d="M74.876,59.489a3.354,3.354,0,0,0,1.458-.307,3.3,3.3,0,0,0,1.081-.825,3.646,3.646,0,0,0,.673-1.181,4.3,4.3,0,0,0,.229-1.406,4.015,4.015,0,0,0-.263-1.455,3.949,3.949,0,0,0-.719-1.2,3.415,3.415,0,0,0-1.132-.824,3.541,3.541,0,0,0-1.491-.309,3.281,3.281,0,0,0-2.443.987,3.607,3.607,0,0,0-.967,2.635,4.517,4.517,0,0,0,.247,1.488,3.8,3.8,0,0,0,.7,1.246,3.346,3.346,0,0,0,1.115.841,3.541,3.541,0,0,0,1.508.307m3.278,1.689a7,7,0,0,1-2.045,1.413,7.534,7.534,0,0,1-5.619-.018,6.033,6.033,0,0,1-2.1-1.526,6.651,6.651,0,0,1-1.314-2.338,10.079,10.079,0,0,1,.033-6.089,7.267,7.267,0,0,1,1.4-2.452,6.308,6.308,0,0,1,2.224-1.624,7.237,7.237,0,0,1,2.972-.584,5.862,5.862,0,0,1,2.679.6,4.412,4.412,0,0,1,1.769,1.51V48.415h4.578V62.637H78.154Z" transform="translate(-46.07 -38.315)"/>
      <path id="Path_1431" data-name="Path 1431" class="cls-1" d="M41.576,54.216a9.254,9.254,0,0,0,2.891-.407,5.639,5.639,0,0,0,2.176-1.318,7.68,7.68,0,0,0,1.459-2.23,8.821,8.821,0,0,0,.651-3.661,8.966,8.966,0,0,0-.538-3.206A6.391,6.391,0,0,0,46.8,41.1a5.488,5.488,0,0,0-2.534-1.5,11.9,11.9,0,0,0-2.955-.356H40.178V54.216Zm-6.333-19H41.77a16.33,16.33,0,0,1,5.164.747,9.4,9.4,0,0,1,3.733,2.24,11.657,11.657,0,0,1,2.5,3.605,11.484,11.484,0,0,1,.843,4.578,11.983,11.983,0,0,1-.957,5.034,12.357,12.357,0,0,1-2.484,3.6,9.9,9.9,0,0,1-4.043,2.484,16.526,16.526,0,0,1-5.049.731H35.243Z" transform="translate(-35.243 -33.919)"/>
    </g>
    <path id="Path_1432" data-name="Path 1432" class="cls-1" d="M1.15-11.881c0,3.383,1.867,5.666,5.283,5.666a7.453,7.453,0,0,0,3.08-.7l-.59-1.756a5.692,5.692,0,0,1-2.49.559c-1.931,0-2.968-1.516-2.968-3.766S4.5-15.648,6.433-15.648a5.692,5.692,0,0,1,2.49.559l.59-1.756a7.453,7.453,0,0,0-3.08-.7C3.017-17.547,1.15-15.265,1.15-11.881Zm16.614,2.2a9.729,9.729,0,0,0,.112-1.388c0-1.8-1.1-3.32-3.591-3.32a3.768,3.768,0,0,0-3.846,4.07c0,2.266,1.293,4.1,3.958,4.1a7.446,7.446,0,0,0,3.112-.654l-.495-1.548a7.164,7.164,0,0,1-2.458.479,1.764,1.764,0,0,1-1.931-1.74Zm-5.139-1.341a1.714,1.714,0,0,1,1.676-1.8,1.418,1.418,0,0,1,1.612,1.564,1.208,1.208,0,0,1-.016.239Zm6.831-3.128v7.692H21.61V-11.8a2.055,2.055,0,0,1,1.676-.75,4.5,4.5,0,0,1,.766.064l.192-1.8a3.454,3.454,0,0,0-.766-.1,2.263,2.263,0,0,0-1.947,1.165H21.5l-.3-.926Zm6.767-1.787v1.787l-1.4.479V-12.5h1.4v4.038c0,1.548.8,2.25,2.506,2.25a7.911,7.911,0,0,0,1.8-.239V-8.211a4.869,4.869,0,0,1-1.245.223.794.794,0,0,1-.91-.878V-12.5h2.2v-1.644h-2.2v-1.787Zm8.044,9.48v-7.692H32.111v7.692ZM31.952-16.669A1.157,1.157,0,0,0,33.2-15.488a1.162,1.162,0,0,0,1.261-1.181A1.162,1.162,0,0,0,33.2-17.85,1.157,1.157,0,0,0,31.952-16.669ZM39.1-6.455V-12.5h1.915v-1.644H39.1v-.926c0-.7.223-.862.8-.862a6.049,6.049,0,0,1,1.037.112v-1.771a8.845,8.845,0,0,0-1.373-.112,2.312,2.312,0,0,0-2.617,2.538v1.021l-1.357.479V-12.5h1.357v6.049Zm5.41,0v-7.692H42.357v7.692ZM42.2-16.669a1.157,1.157,0,0,0,1.245,1.181A1.162,1.162,0,0,0,44.7-16.669a1.162,1.162,0,0,0-1.261-1.181A1.157,1.157,0,0,0,42.2-16.669Zm11.235,6.99a9.729,9.729,0,0,0,.112-1.388c0-1.8-1.1-3.32-3.591-3.32a3.768,3.768,0,0,0-3.846,4.07c0,2.266,1.293,4.1,3.958,4.1a7.446,7.446,0,0,0,3.112-.654l-.495-1.548a7.164,7.164,0,0,1-2.458.479,1.764,1.764,0,0,1-1.931-1.74Zm-5.139-1.341a1.714,1.714,0,0,1,1.676-1.8,1.418,1.418,0,0,1,1.612,1.564,1.208,1.208,0,0,1-.016.239ZM60.327-8.45a3.146,3.146,0,0,1-1.548.463c-1.277,0-1.835-.942-1.835-2.314s.559-2.314,1.835-2.314a3.146,3.146,0,0,1,1.548.463Zm0-9.177v4.038H60.3a3.482,3.482,0,0,0-2.186-.8c-2.218,0-3.367,1.851-3.367,4.086s1.149,4.086,3.367,4.086a3.961,3.961,0,0,0,2.442-.926h.032l.3.686h1.6V-17.627ZM70.653-6.455V-10.11h1.915c2.6,0,3.655-1.516,3.655-3.607,0-2.075-1.021-3.591-3.655-3.591H68.435V-6.455Zm0-9h1.756c1.085,0,1.5.718,1.5,1.74s-.415,1.756-1.5,1.756H70.653Zm7.038,1.309v7.692h2.155V-11.8a2.055,2.055,0,0,1,1.676-.75,4.5,4.5,0,0,1,.766.064l.192-1.8a3.454,3.454,0,0,0-.766-.1,2.263,2.263,0,0,0-1.947,1.165h-.032l-.3-.926ZM90.443-9.679a9.729,9.729,0,0,0,.112-1.388c0-1.8-1.1-3.32-3.591-3.32a3.768,3.768,0,0,0-3.846,4.07c0,2.266,1.293,4.1,3.958,4.1a7.446,7.446,0,0,0,3.112-.654l-.495-1.548a7.164,7.164,0,0,1-2.458.479A1.764,1.764,0,0,1,85.3-9.679ZM85.3-11.019a1.714,1.714,0,0,1,1.676-1.8,1.418,1.418,0,0,1,1.612,1.564,1.208,1.208,0,0,1-.016.239ZM96.747-9.966V-11.61H92.118v1.644Zm4.054-1.915c0-2.139.766-3.766,2.921-3.766,2.139,0,2.9,1.628,2.9,3.766s-.766,3.766-2.9,3.766C101.566-8.115,100.8-9.743,100.8-11.881Zm8.139,0c0-3.16-1.628-5.666-5.219-5.666-3.623,0-5.235,2.506-5.235,5.666s1.612,5.666,5.235,5.666C107.312-6.216,108.94-8.721,108.94-11.881Zm13.869-2.266h-2.155l-1.42,5.33H119.2l-1.644-5.33h-2.33l-1.644,5.33h-.032l-1.42-5.33h-2.155v.16l2.3,7.533h2.346l1.756-5.538h.032l1.756,5.538h2.346l2.3-7.533Zm1.293,0v7.692h2.155v-5.506a2.8,2.8,0,0,1,1.66-.654c.942,0,1.372.527,1.372,1.532v4.628h2.155v-4.852c0-1.851-1.037-3.08-2.841-3.08a3.6,3.6,0,0,0-2.458.989h-.032l-.287-.75Zm16.183,4.469a9.731,9.731,0,0,0,.112-1.388c0-1.8-1.1-3.32-3.591-3.32a3.768,3.768,0,0,0-3.846,4.07c0,2.266,1.293,4.1,3.958,4.1a7.446,7.446,0,0,0,3.112-.654l-.495-1.548a7.164,7.164,0,0,1-2.458.479,1.764,1.764,0,0,1-1.931-1.74Zm-5.139-1.341a1.714,1.714,0,0,1,1.676-1.8,1.418,1.418,0,0,1,1.612,1.564,1.208,1.208,0,0,1-.016.239ZM147.178-8.45a3.146,3.146,0,0,1-1.548.463c-1.277,0-1.835-.942-1.835-2.314s.559-2.314,1.835-2.314a3.146,3.146,0,0,1,1.548.463Zm0-9.177v4.038h-.032a3.482,3.482,0,0,0-2.186-.8c-2.218,0-3.367,1.851-3.367,4.086s1.149,4.086,3.367,4.086a3.961,3.961,0,0,0,2.442-.926h.032l.3.686h1.6V-17.627Z" transform="translate(136 124.353)"/>
  </g>
</svg>
